<svg id="weather-icon-chancerain" class="weather-icon weather-icon-black chancerain" xmlns="http://www.w3.org/2000/svg" viewBox="0 0 64 64"><style>.st0{fill:#2885C7;}</style><path d="M50.9 24.1c.1-.8.2-1.6.2-2.4 0-7.4-6-13.4-13.4-13.4-4.5 0-8.7 2.3-11.2 6-1.2-.5-2.4-.8-3.7-.8-5.1 0-9.3 4.1-9.3 9.3v.3c-4.1 1.4-7 5.2-7 9.7 0 5.6 4.6 10.2 10.2 10.2h5c1.6 0 1.5-2.7 0-2.7h-5c-4.2 0-7.5-3.4-7.5-7.5 0-3.6 2.5-6.7 6.1-7.4l1.3-.3-.2-1.3c-.1-.4-.1-.7-.1-1.1 0-3.6 3-6.6 6.6-6.6 1.2 0 2.4.3 3.5 1l1.2.7.7-1.3c1.9-3.5 5.5-5.7 9.5-5.7 5.9 0 10.7 4.8 10.7 10.7 0 1.1-.2 2.2-.5 3.3l-.6 1.9 2.1-.1h.3c3.8 0 6.8 3.1 6.8 6.8 0 3.8-3.1 6.8-6.8 6.8h-5.7c-1.7 0-2 2.7 0 2.7h5.7c5.2 0 9.5-4.3 9.5-9.5-.1-4.7-3.8-8.7-8.4-9.3z"/><path class="st0" d="M24.9 46.5c-.3 0-.5-.1-.8-.2-.6-.4-.7-1.3-.3-1.8l2.4-3.5c.4-.6 1.2-.7 1.8-.3.6.4.7 1.2.3 1.8L25.9 46c-.2.3-.6.5-1 .5zM30.7 46.5c-.3 0-.5-.1-.8-.2-.6-.4-.7-1.3-.3-1.8L32 41c.4-.6 1.3-.7 1.8-.3.6.4.7 1.2.3 1.8L31.7 46c-.2.3-.6.5-1 .5zM36.5 46.5c-.3 0-.5-.1-.8-.2-.6-.4-.7-1.3-.3-1.8l2.4-3.5c.4-.6 1.3-.7 1.8-.3.6.4.7 1.2.3 1.8L37.5 46c-.1.3-.5.5-1 .5zM18.6 56c-.3 0-.5-.1-.8-.2-.6-.4-.7-1.2-.3-1.8l2.4-3.5c.4-.6 1.3-.7 1.9-.3.6.4.7 1.2.3 1.8l-2.4 3.5c-.3.3-.7.5-1.1.5zM24.5 56c-.3 0-.5-.1-.8-.2-.6-.4-.7-1.2-.3-1.8l2.4-3.5c.4-.6 1.2-.7 1.8-.3.6.4.7 1.2.3 1.8l-2.4 3.5c-.2.3-.6.5-1 .5zM30.3 56c-.3 0-.5-.1-.8-.2-.6-.4-.7-1.2-.3-1.8l2.4-3.5c.4-.6 1.2-.7 1.8-.3.6.4.7 1.2.3 1.8l-2.4 3.5c-.2.3-.6.5-1 .5z"/></svg>