<svg id="weather-icon-sunny" class="weather-icon weather-icon-black sunny" xmlns="http://www.w3.org/2000/svg" viewBox="0 0 64 64"><style>.st0{fill:#F4A71D;}</style><g id="sunny"><path class="st0" d="M32.9 19.2c-.7 0-1.3-.6-1.3-1.3v-4.6c0-.7.6-1.3 1.3-1.3.7 0 1.3.6 1.3 1.3v4.6c0 .7-.6 1.3-1.3 1.3zM32.9 53.8c-.7 0-1.3-.6-1.3-1.3v-4.6c0-.7.6-1.3 1.3-1.3.7 0 1.3.6 1.3 1.3v4.6c0 .7-.6 1.3-1.3 1.3zM17.9 34.2h-4.6c-.7 0-1.3-.6-1.3-1.3 0-.7.6-1.3 1.3-1.3h4.6c.7 0 1.3.6 1.3 1.3 0 .7-.6 1.3-1.3 1.3zM52.5 34.2h-4.6c-.7 0-1.3-.6-1.3-1.3 0-.7.6-1.3 1.3-1.3h4.6c.7 0 1.3.6 1.3 1.3 0 .7-.6 1.3-1.3 1.3zM44 23.5c-.3 0-.7-.1-.9-.4-.5-.5-.5-1.4 0-1.9l3.2-3.2c.5-.5 1.4-.5 1.9 0s.5 1.4 0 1.9L45 23.1c-.3.3-.7.4-1 .4zM19.1 48.4c-.3 0-.7-.1-.9-.4-.5-.5-.5-1.4 0-1.9l3.2-3.2c.5-.5 1.4-.5 1.9 0s.5 1.4 0 1.9L20 48c-.2.3-.6.4-.9.4zM47.2 48.2c-.3 0-.7-.1-.9-.4l-3.2-3.2c-.5-.5-.5-1.4 0-1.9s1.4-.5 1.9 0l3.2 3.2c.5.5.5 1.4 0 1.9-.3.3-.6.4-1 .4zM22.3 23.8c-.3 0-.7-.1-.9-.4l-3.2-3.2c-.5-.5-.5-1.4 0-1.9s1.4-.5 1.9 0l3.2 3.2c.5.5.5 1.4 0 1.9-.3.2-.6.4-1 .4zM32.9 24.5c4.6 0 8.4 3.8 8.4 8.4 0 4.6-3.8 8.4-8.4 8.4-4.6 0-8.4-3.8-8.4-8.4 0-4.6 3.8-8.4 8.4-8.4m0-2.7c-6.1 0-11.1 5-11.1 11.1S26.8 44 32.9 44 44 39 44 32.9s-5-11.1-11.1-11.1z"/></g></svg>