<svg id="weather-icon-hazy" class="weather-icon weather-icon-white hazy" xmlns="http://www.w3.org/2000/svg" viewBox="0 0 64 64"><style>.st0{fill:#FFFFFF;}</style><g id="fog"><path class="st0" d="M41.7 38.5c-3.2 0-6.1-.9-8.7-2.7-7.2-5.1-13.2-5.3-19.6-.9-.5.3-1.1.2-1.4-.3-.3-.5-.2-1.1.3-1.4 7.1-4.9 14.1-4.6 21.9.9 6.2 4.4 13.3 1.9 18.2-1 .5-.3 1.1-.1 1.4.4.3.5.1 1.1-.4 1.4-4 2.4-8 3.6-11.7 3.6z"/><path class="st0" d="M41.7 46.3c-3.2 0-6.1-.9-8.7-2.7-7.2-5.1-13.2-5.3-19.6-.9-.5.3-1.1.2-1.4-.3-.3-.5-.2-1.1.3-1.4 7.1-4.9 14.1-4.6 21.9.9 6.2 4.3 13.3 1.9 18.2-1 .5-.3 1.1-.1 1.4.4.3.5.1 1.1-.4 1.4-4 2.4-8 3.6-11.7 3.6zM41.7 30.8c-3.2 0-6.1-.9-8.7-2.7-7.2-5.1-13.2-5.3-19.6-.9-.5.3-1.1.2-1.4-.3-.3-.5-.2-1.1.3-1.4 7.1-4.9 14.1-4.6 21.9.9 6.2 4.4 13.3 1.9 18.2-1 .5-.3 1.1-.1 1.4.4.3.5.1 1.1-.4 1.4-4 2.4-8 3.6-11.7 3.6z"/></g></svg>