<svg id="weather-icon-partlycloudy" class="weather-icon weather-icon-white partlycloudy" xmlns="http://www.w3.org/2000/svg" viewBox="0 0 64 64"><style>.st0{fill:#F4A71D;} .st1{fill:#FFFFFF;}</style><g id="mostlysunny"><path class="st0" d="M35.5 15.3c-.7 0-1.3-.6-1.3-1.3V9c0-.7.6-1.3 1.3-1.3.7 0 1.3.6 1.3 1.3v5c0 .7-.6 1.3-1.3 1.3zM19.2 31.6h-5c-.7 0-1.3-.6-1.3-1.3 0-.7.6-1.3 1.3-1.3h5c.7 0 1.3.6 1.3 1.3 0 .7-.6 1.3-1.3 1.3zM56.7 31.6h-5c-.7 0-1.3-.6-1.3-1.3 0-.7.6-1.3 1.3-1.3h5c.7 0 1.3.6 1.3 1.3 0 .7-.6 1.3-1.3 1.3zM47.5 20c-.3 0-.7-.1-.9-.4-.5-.5-.5-1.4 0-1.9l3.5-3.5c.5-.5 1.4-.5 1.9 0s.5 1.4 0 1.9l-3.5 3.5c-.3.2-.7.4-1 .4zM51 46.8c-.3 0-.7-.1-.9-.4l-3.5-3.5c-.5-.5-.5-1.4 0-1.9s1.3-.5 1.9 0l3.5 3.5c.5.5.5 1.4 0 1.9-.3.2-.7.4-1 .4zM24 20.2c-.3 0-.7-.1-.9-.4l-3.5-3.5c-.5-.5-.5-1.4 0-1.9s1.3-.5 1.9 0l3.5 3.5c.5.5.5 1.4 0 1.9-.3.3-.7.4-1 .4z"/><path class="st1" d="M33.4 58.2h-20c-3.7 0-6.7-3-6.7-6.7 0-2.8 1.7-5.3 4.3-6.3.1-3.3 2.8-6 6.2-6 .7 0 1.4.1 2 .4 1.6-2.2 4.2-3.6 7-3.6 4.8 0 8.7 3.9 8.7 8.7 0 .4 0 .7-.1 1.1 2.8.6 5 3.1 5 6.2-.1 3.4-2.9 6.2-6.4 6.2zM17.1 41.9c-1.9 0-3.5 1.6-3.5 3.5 0 .2 0 .4.1.6l.2 1.3-1.3.3c-1.9.4-3.3 2.1-3.3 4 0 2.2 1.8 4.1 4.1 4.1h20c2 0 3.6-1.6 3.6-3.6s-1.6-3.6-3.6-3.6h-.2l-2 .1.6-1.9c.2-.6.3-1.2.3-1.9 0-3.3-2.7-6-6-6-2.2 0-4.3 1.2-5.3 3.2l-.7 1.3-1.2-.7c-.5-.5-1.2-.7-1.8-.7z"/><path class="st0" d="M47.5 30.3c0-6.6-5.4-12-12-12s-12 5.4-12 12c0 .7.1 1.4.2 2 0 .8.7 1.4 1.4 1.3.4 0 1-.3 1.1-.7.2-.5.1-1 0-1.5-.1-.4-.1-.8-.1-1.1 0-5.2 4.2-9.4 9.4-9.4s9.3 4.2 9.3 9.4c0 .4-.1.8-.1 1.2-.1.4-.1.8-.2 1.2-.2.7-.5 1.5-.8 2.1-.4.7-.8 1.3-1.3 1.9-.5.6-1.1 1.1-1.7 1.4-.7.4-1.4.7-2.1 1-.3.1-.6.1-.9.3-.3.1-.5.4-.6.7-.1.2-.1.3-.1.5 0 .7.6 1.3 1.4 1.4 5.1-1.1 9.1-6.1 9.1-11.7z"/></g></svg>