<svg id="weather-icon-tstorms" class="weather-icon weather-icon-white tstorms" xmlns="http://www.w3.org/2000/svg" viewBox="0 0 64 64"><style>.st0{fill:#2885C7;} .st1{fill:#F4A71D;} .st2{fill:#FFFFFF;}</style><g id="tstorms"><path class="st0" d="M19.7 53c-.2 0-.4 0-.6-.1-.7-.3-.9-1.1-.6-1.8l2.8-5.8c.3-.7 1.1-.9 1.8-.6.7.3.9 1.1.6 1.8l-2.8 5.8c-.3.4-.7.7-1.2.7zM13.1 53c-.2 0-.4 0-.6-.1-.7-.3-.9-1.1-.6-1.8l2.8-5.8c.3-.7 1.1-.9 1.8-.6.7.3.9 1.1.6 1.8l-2.8 5.8c-.2.4-.7.7-1.2.7zM46.8 53c-.2 0-.4 0-.6-.1-.7-.3-.9-1.1-.6-1.8l2.8-5.8c.3-.7 1.1-.9 1.8-.6.7.3.9 1.1.6 1.8L48 52.3c-.2.4-.7.7-1.2.7zM40.2 53c-.2 0-.4 0-.6-.1-.7-.3-.9-1.1-.6-1.8l2.8-5.8c.3-.7 1.1-.9 1.8-.6.7.3.9 1.1.6 1.8l-2.8 5.8c-.2.4-.7.7-1.2.7z"/><path class="st1" d="M27.7 59.3c-.2 0-.5-.1-.7-.2-.6-.4-.8-1.2-.4-1.8l7.9-13.1h-8.3L35.5 31c.4-.6 1.2-.7 1.8-.3.6.4.7 1.3.3 1.9l-6.4 9.1h7.9L28.8 58.6c-.2.4-.7.7-1.1.7z"/><path class="st2" d="M50.9 22.3c.1-.8.2-1.6.2-2.4 0-7.4-6-13.4-13.4-13.4-4.5 0-8.7 2.3-11.2 6-1.1-.5-2.4-.8-3.6-.8-5.1 0-9.3 4.2-9.3 9.3v.3c-4.1 1.4-7 5.2-7 9.7 0 5.6 4.6 10.2 10.2 10.2h5c1.6 0 1.5-2.6 0-2.6h-5c-4.2 0-7.5-3.4-7.5-7.5 0-3.6 2.5-6.7 6.1-7.4l1.3-.2-.2-1.3c-.1-.4-.1-.8-.1-1.1 0-3.6 3-6.6 6.6-6.6 1.2 0 2.4.3 3.5 1l1.2.7.7-1.3c1.9-3.5 5.5-5.7 9.5-5.7 5.9 0 10.7 4.8 10.7 10.7 0 1.1-.2 2.2-.5 3.3l-.8 1.8 2.1-.1h.3c3.8 0 6.8 3.1 6.8 6.8 0 3.8-3.1 6.8-6.8 6.8H44c-1.7 0-2 2.6 0 2.6h5.7c5.2 0 9.5-4.3 9.5-9.5 0-4.7-3.7-8.7-8.3-9.3z"/></g></svg>